<?xml version="1.0" encoding="UTF-8" standalone="no"?>
<svg width="28px" height="28px" viewBox="0 0 28 28" version="1.1" xmlns="http://www.w3.org/2000/svg" xmlns:xlink="http://www.w3.org/1999/xlink">
    <!-- Generator: Sketch 46.2 (44496) - http://www.bohemiancoding.com/sketch -->
    <title>logo</title>
    <desc>Created with Sketch.</desc>
    <defs></defs>
    <g id="Page-1" stroke="none" stroke-width="1" fill="none" fill-rule="evenodd">
        <g id="Landing-Page-Copy-10" transform="translate(-219.000000, -8741.000000)" fill-rule="nonzero" fill="#242B37">
            <g id="Group-33" transform="translate(-132.000000, 6463.000000)">
                <g id="Group-31" transform="translate(351.000000, 2278.000000)">
                    <path d="M16.6399027,21.2725061 C15.8791565,20.5117599 14.9537713,20.1313869 13.863747,20.1313869 C12.7737226,20.1313869 11.8426602,20.5117599 11.0705596,21.2725061 C10.3098135,22.0559611 9.92944039,22.9870235 9.92944039,24.0656934 C9.92944039,25.1557178 10.3098135,26.081103 11.0705596,26.8418491 L11.0705596,26.8588808 C11.8426602,27.6196269 12.7737226,28 13.863747,28 C14.9537713,28 15.8791565,27.6196269 16.6399027,26.8588808 L16.6399027,26.8418491 C17.4120032,26.081103 17.7980535,25.1557178 17.7980535,24.0656934 C17.7980535,22.9870235 17.4120032,22.0559611 16.6399027,21.2725061 L16.6399027,21.2725061 Z M12.4501217,22.6861314 C12.8361719,22.3000811 13.3017032,22.107056 13.8467153,22.107056 C14.3803731,22.107056 14.8345499,22.3000811 15.2092457,22.6861314 C15.595296,23.0721817 15.7883212,23.5320357 15.7883212,24.0656934 C15.7883212,24.5993512 15.595296,25.0592052 15.2092457,25.4452555 C14.8345499,25.8313058 14.3803731,26.0243309 13.8467153,26.0243309 C13.3017032,26.0243309 12.8361719,25.8313058 12.4501217,25.4452555 C12.0754258,25.0592052 11.8880779,24.5993512 11.8880779,24.0656934 C11.8880779,23.5320357 12.0754258,23.0721817 12.4501217,22.6861314 L12.4501217,22.6861314 Z M0.0681265207,27.6082725 C0.124898621,27.6650446 0.187347932,27.6934307 0.255474453,27.6934307 L7,27.6934307 C7.06812652,27.6934307 7.12489862,27.6650446 7.1703163,27.6082725 C7.2270884,27.5628548 7.25547445,27.5060827 7.25547445,27.4379562 L7.25547445,20.6934307 C7.25547445,20.6253041 7.2270884,20.5628548 7.1703163,20.5060827 C7.12489862,20.460665 7.06812652,20.4379562 7,20.4379562 L0.255474453,20.4379562 C0.187347932,20.4379562 0.124898621,20.460665 0.0681265207,20.5060827 C0.0227088402,20.5628548 0,20.6253041 0,20.6934307 L0,27.4379562 C0,27.5060827 0.0227088402,27.5628548 0.0681265207,27.6082725 L0.0681265207,27.6082725 Z M9.60583942,13.8467153 C9.60583942,13.9148418 9.62854826,13.9772912 9.67396594,14.0340633 L13.6593674,18.0194647 C13.7161395,18.0648824 13.7785888,18.0875912 13.8467153,18.0875912 C13.9148418,18.0875912 13.9716139,18.0648824 14.0170316,18.0194647 L18.0024331,14.0340633 C18.0592052,13.9772912 18.0875912,13.9148418 18.0875912,13.8467153 C18.0875912,13.7785888 18.0592052,13.7218167 18.0024331,13.676399 L14.0170316,9.69099757 C13.9716139,9.63422547 13.9148418,9.60583942 13.8467153,9.60583942 C13.7785888,9.60583942 13.7161395,9.63422547 13.6593674,9.69099757 L9.67396594,13.676399 C9.62854826,13.7218167 9.60583942,13.7785888 9.60583942,13.8467153 L9.60583942,13.8467153 Z M7,17.4744526 C7.06812652,17.4744526 7.13057583,17.4517437 7.18734793,17.406326 C7.23276561,17.3495539 7.25547445,17.2871046 7.25547445,17.2189781 L7.25547445,10.4744526 C7.25547445,10.406326 7.23276561,10.3495539 7.18734793,10.3041363 C7.13057583,10.2473642 7.06812652,10.2189781 7,10.2189781 L0.255474453,10.2189781 C0.187347932,10.2189781 0.130575831,10.2473642 0.0851581509,10.3041363 C0.0283860503,10.3495539 0,10.406326 0,10.4744526 L0,17.2189781 C0,17.2871046 0.0283860503,17.3495539 0.0851581509,17.406326 C0.130575831,17.4517437 0.187347932,17.4744526 0.255474453,17.4744526 L7,17.4744526 L7,17.4744526 Z M17.2189781,0 L10.4744526,0 C10.406326,0 10.3495539,0.0227088402 10.3041363,0.0681265207 C10.2473642,0.124898621 10.2189781,0.187347932 10.2189781,0.255474453 L10.2189781,7 C10.2189781,7.06812652 10.2473642,7.12489862 10.3041363,7.1703163 C10.3495539,7.2270884 10.406326,7.25547445 10.4744526,7.25547445 L17.2189781,7.25547445 C17.2871046,7.25547445 17.3495539,7.2270884 17.406326,7.1703163 C17.4517437,7.12489862 17.4744526,7.06812652 17.4744526,7 L17.4744526,0.255474453 C17.4744526,0.187347932 17.4517437,0.124898621 17.406326,0.0681265207 C17.3495539,0.0227088402 17.2871046,0 17.2189781,0 L17.2189781,0 Z M0.0851581509,0.0681265207 C0.0283860503,0.124898621 0,0.187347932 0,0.255474453 L0,7 C0,7.06812652 0.0283860503,7.12489862 0.0851581509,7.1703163 C0.130575831,7.2270884 0.187347932,7.25547445 0.255474453,7.25547445 L7,7.25547445 C7.06812652,7.25547445 7.13057583,7.2270884 7.18734793,7.1703163 C7.23276561,7.12489862 7.25547445,7.06812652 7.25547445,7 L7.25547445,0.255474453 C7.25547445,0.187347932 7.23276561,0.124898621 7.18734793,0.0681265207 C7.13057583,0.0227088402 7.06812652,0 7,0 L0.255474453,0 C0.187347932,0 0.130575831,0.0227088402 0.0851581509,0.0681265207 L0.0851581509,0.0681265207 Z M28,24.0656934 C28,22.9870235 27.6139497,22.0559611 26.8418491,21.2725061 C26.081103,20.5117599 25.1557178,20.1313869 24.0656934,20.1313869 C22.9756691,20.1313869 22.0446067,20.5117599 21.2725061,21.2725061 C20.5117599,22.0559611 20.1313869,22.9870235 20.1313869,24.0656934 C20.1313869,25.1557178 20.5117599,26.081103 21.2725061,26.8418491 L21.2725061,26.8588808 C22.0446067,27.6196269 22.9756691,28 24.0656934,28 C25.1557178,28 26.081103,27.6196269 26.8418491,26.8588808 L26.8418491,26.8418491 C27.6139497,26.081103 28,25.1557178 28,24.0656934 L28,24.0656934 Z M22.0900243,24.0656934 C22.0900243,23.5320357 22.2773723,23.0721817 22.6520681,22.6861314 C23.0381184,22.3000811 23.5036496,22.107056 24.0486618,22.107056 C24.5823195,22.107056 25.0364964,22.3000811 25.4111922,22.6861314 C25.7972425,23.0721817 25.9902676,23.5320357 25.9902676,24.0656934 C25.9902676,24.5993512 25.7972425,25.0592052 25.4111922,25.4452555 C25.0364964,25.8313058 24.5823195,26.0243309 24.0486618,26.0243309 C23.5036496,26.0243309 23.0381184,25.8313058 22.6520681,25.4452555 C22.2773723,25.0592052 22.0900243,24.5993512 22.0900243,24.0656934 L22.0900243,24.0656934 Z M21.2725061,11.0705596 C20.5117599,11.8540146 20.1313869,12.7793998 20.1313869,13.8467153 C20.1313869,14.9367397 20.5117599,15.8678021 21.2725061,16.6399027 C22.0559611,17.4006488 22.9870235,17.7810219 24.0656934,17.7810219 C25.1557178,17.7810219 26.081103,17.4006488 26.8418491,16.6399027 C27.6139497,15.8678021 28,14.9367397 28,13.8467153 C28,12.7793998 27.6139497,11.8540146 26.8418491,11.0705596 C26.0924574,10.298459 25.1670722,9.91240876 24.0656934,9.91240876 C22.9870235,9.91240876 22.0559611,10.298459 21.2725061,11.0705596 L21.2725061,11.0705596 Z M22.6520681,12.4671533 C23.0381184,12.0924574 23.5036496,11.9051095 24.0486618,11.9051095 C24.5823195,11.9051095 25.0421736,12.0924574 25.4282238,12.4671533 C25.8029197,12.8532036 25.9902676,13.3130576 25.9902676,13.8467153 C25.9902676,14.3917275 25.8029197,14.8572587 25.4282238,15.243309 C25.0421736,15.6180049 24.5823195,15.8053528 24.0486618,15.8053528 C23.5036496,15.8053528 23.0381184,15.6180049 22.6520681,15.243309 C22.2773723,14.8572587 22.0900243,14.3917275 22.0900243,13.8467153 C22.0900243,13.324412 22.2773723,12.8702352 22.6520681,12.4841849 L22.6520681,12.4671533 L22.6520681,12.4671533 Z M27.6934307,0.255474453 C27.6934307,0.187347932 27.6707218,0.124898621 27.6253041,0.0681265207 C27.568532,0.0227088402 27.5060827,0 27.4379562,0 L20.6934307,0 C20.6253041,0 20.568532,0.0227088402 20.5231144,0.0681265207 C20.4663423,0.124898621 20.4379562,0.187347932 20.4379562,0.255474453 L20.4379562,7 C20.4379562,7.06812652 20.4663423,7.12489862 20.5231144,7.1703163 C20.568532,7.2270884 20.6253041,7.25547445 20.6934307,7.25547445 L27.4379562,7.25547445 C27.5060827,7.25547445 27.568532,7.2270884 27.6253041,7.1703163 C27.6707218,7.12489862 27.6934307,7.06812652 27.6934307,7 L27.6934307,0.255474453 Z" id="logo"></path>
                </g>
            </g>
        </g>
    </g>
</svg>