<?xml version="1.0" encoding="UTF-8" standalone="no"?>
<svg width="19px" height="15px" viewBox="0 0 19 15" version="1.1" xmlns="http://www.w3.org/2000/svg" xmlns:xlink="http://www.w3.org/1999/xlink">
    <!-- Generator: Sketch 46.2 (44496) - http://www.bohemiancoding.com/sketch -->
    <title>envelope</title>
    <desc>Created with Sketch.</desc>
    <defs></defs>
    <g id="Page-1" stroke="none" stroke-width="1" fill="none" fill-rule="evenodd">
        <g id="Artboard" transform="translate(-1197.000000, -470.000000)" fill-rule="nonzero" fill="#FFFFFF">
            <g id="envelope" transform="translate(1197.000000, 470.000000)">
                <path d="M16.68052,0 L2.32340026,0 C1.04179538,0 0,1.08075041 0,2.41027732 L0,12.5897227 C0,13.9192496 1.04179538,15 2.32340026,15 L16.6765887,15 C17.9581935,15 18.9999889,13.9192496 18.9999889,12.5897227 L18.9999889,2.41435563 C19.0039202,1.08482871 17.9621248,0 16.68052,0 Z M17.9424683,12.5897227 C17.9424683,13.3115824 17.3763606,13.8988581 16.68052,13.8988581 L2.32340026,13.8988581 C1.62755957,13.8988581 1.06145189,13.3115824 1.06145189,12.5897227 L1.06145189,2.41435563 C1.06145189,1.69249592 1.62755957,1.10522023 2.32340026,1.10522023 L16.6765887,1.10522023 C17.3724293,1.10522023 17.938537,1.69249592 17.938537,2.41435563 L17.938537,12.5897227 L17.9424683,12.5897227 Z" id="Shape"></path>
                <path d="M11.9728845,7.59683924 L16.6067589,3.24384095 C16.8223792,3.03851084 16.841981,2.68944966 16.6459626,2.45947994 C16.4499442,2.23361682 16.116713,2.21308381 15.8971724,2.41841391 L9.50697327,8.42637288 L8.26029638,7.26009786 C8.25637601,7.25599126 8.25245564,7.25188466 8.25245564,7.24777806 C8.22501307,7.21903184 8.1975705,7.19439223 8.16620756,7.16975262 L3.09325191,2.41430731 C2.87371133,2.2089772 2.54048008,2.22951022 2.3444617,2.45947994 C2.14844333,2.68944966 2.16804516,3.03851084 2.38758575,3.24384095 L7.07634537,7.63379866 L2.40718759,12.2126601 C2.19548774,12.4220968 2.18372663,12.771158 2.38366538,12.9970211 C2.4895153,13.1120059 2.63064854,13.173605 2.77178177,13.173605 C2.9011539,13.173605 3.03052603,13.1243258 3.13245559,13.0257673 L7.87217999,8.38120025 L9.15806055,9.58443469 C9.25999011,9.67888654 9.38544187,9.72405916 9.51089363,9.72405916 C9.6363454,9.72405916 9.76571753,9.67477994 9.86372672,9.58032809 L11.1848906,8.34013423 L15.8971724,13.0298739 C15.999102,13.132539 16.1323945,13.1818182 16.2617666,13.1818182 C16.4028998,13.1818182 16.5401127,13.1243258 16.6459626,13.0093409 C16.8459014,12.7875844 16.8380606,12.4344166 16.6263608,12.2249799 L11.9728845,7.59683924 Z" id="Shape"></path>
            </g>
        </g>
    </g>
</svg>