<?xml version="1.0" encoding="UTF-8" standalone="no"?>
<svg width="18px" height="17px" viewBox="0 0 18 17" version="1.1" xmlns="http://www.w3.org/2000/svg" xmlns:xlink="http://www.w3.org/1999/xlink">
    <!-- Generator: Sketch 46.2 (44496) - http://www.bohemiancoding.com/sketch -->
    <title>Combined-Shape</title>
    <desc>Created with Sketch.</desc>
    <defs></defs>
    <g id="Page-1" stroke="none" stroke-width="1" fill="none" fill-rule="evenodd">
        <g id="Landing-Page-Copy-10" transform="translate(-1517.000000, -328.000000)" fill-rule="nonzero" fill="#FFFFFF">
            <g id="Bitmap">
                <g id="Group-6" transform="translate(1515.000000, 261.000000)">
                    <path d="M17.957553,67.1537557 C18.6996642,66.8756655 19.1939192,67.0054944 19.5789277,67.2987422 C19.9639362,67.59199 20.0634445,67.979725 19.9639362,68.5443933 C19.8644279,69.1090617 17.4261291,81.4553679 17.2814509,82.047761 C17.1367727,82.640154 16.870999,82.8387572 16.431722,83.0072414 C15.992445,83.1757256 15.3442206,83.1981902 15.0868255,83.0072414 C14.9152287,82.8799423 13.7661978,82.0047264 11.639733,80.3815941 C10.5654938,81.2947019 9.94546287,81.8500909 9.77964012,82.047761 C9.53090597,82.3442661 8.52216589,82.8478242 8.09980504,82.047761 C7.81823115,81.5143855 7.30195218,79.8994631 6.55096816,77.2029937 C4.63907769,76.5932807 3.4100225,76.1882871 2.86380258,75.9880127 C2.0444727,75.6876013 1.95944338,75.2477795 2.0125851,74.7263434 C2.06572683,74.2049071 2.38122046,73.7954173 3.00860429,73.5081145 C3.6359881,73.2208116 17.2154418,67.4318459 17.957553,67.1537557 Z M3.61352354,74.7630175 L7.69178903,76.0678567 C13.1123347,72.6586563 15.8899562,70.9194119 16.0246533,70.8501236 C16.1593504,70.7808353 16.2876872,70.8636114 16.4096635,71.0984518 L9.59491643,77.5074833 L9.13439289,80.8246603 L11.5252449,78.595932 C14.0395618,80.5658667 15.3919917,81.606003 15.5825345,81.716341 C15.7730773,81.826679 15.9204502,81.77151 16.0246533,81.550834 L18.6003643,68.4086587 L3.61352354,74.7630175 Z" id="Combined-Shape"></path>
                </g>
            </g>
        </g>
    </g>
</svg>