<?xml version="1.0" encoding="UTF-8" standalone="no"?>
<svg width="27px" height="15px" viewBox="0 0 27 15" version="1.1" xmlns="http://www.w3.org/2000/svg" xmlns:xlink="http://www.w3.org/1999/xlink">
    <!-- Generator: Sketch 46.2 (44496) - http://www.bohemiancoding.com/sketch -->
    <title>Shape</title>
    <desc>Created with Sketch.</desc>
    <defs></defs>
    <g id="Page-1" stroke="none" stroke-width="1" fill="none" fill-rule="evenodd">
        <g id="Landing-Page-Copy-10" transform="translate(-1515.000000, -396.000000)" fill-rule="nonzero" fill="#FFFFFF">
            <g id="Bitmap">
                <g id="Group-6" transform="translate(1515.000000, 261.000000)">
                    <g id="vk-social-network-logo" transform="translate(0.000000, 135.000000)">
                        <path d="M26.217359,13.3299003 C26.1854435,13.2623897 26.155691,13.2063904 26.1280533,13.1615248 C25.6707584,12.3531435 24.7968801,11.3609126 23.5069471,10.1845491 L23.479694,10.157611 L23.4660434,10.1444013 L23.4522486,10.1308615 L23.4384057,10.1308615 C22.8529683,9.583087 22.4822393,9.2147746 22.3269879,9.02620733 C22.0429209,8.66700012 21.9792822,8.30340544 22.1345337,7.93499868 C22.2442191,7.65665319 22.6562363,7.06882528 23.369624,6.17071291 C23.7448712,5.69474213 24.04206,5.31326729 24.2615269,5.02586378 C25.8443709,2.96044594 26.5306016,1.64061658 26.3200749,1.06585674 L26.2383155,0.931543252 C26.1833767,0.85068153 26.0415835,0.77670768 25.8131284,0.709244283 C25.5841445,0.641922417 25.2914738,0.630788598 24.9345877,0.675654116 L20.9824524,0.702450766 C20.9184292,0.680183127 20.8270087,0.682258924 20.7079025,0.709244283 C20.5889404,0.736229641 20.5294354,0.749769498 20.5294354,0.749769498 L20.4606537,0.783501196 L20.4060513,0.824026412 C20.360293,0.850823062 20.3099684,0.897953085 20.2550296,0.965322127 C20.2003792,1.03245528 20.1546689,1.11124121 20.1181392,1.20101942 C19.6878571,2.28755753 19.1986467,3.29776292 18.6495948,4.23158843 C18.3110697,4.78842093 18.0001823,5.27099652 17.7162595,5.67959825 C17.4327213,6.08805845 17.1948453,6.38900182 17.0028718,6.58190939 C16.8106099,6.77500567 16.6370936,6.92969971 16.4812653,7.04655764 C16.3256774,7.16346274 16.2069076,7.21285727 16.1246676,7.1947884 C16.0422353,7.17671953 15.9646096,7.1587922 15.8911175,7.14086486 C15.7631191,7.06000314 15.6601629,6.95003308 15.5825372,6.81086034 C15.504575,6.6716876 15.4520875,6.49651866 15.4246421,6.28549504 C15.3973409,6.07432989 15.3811909,5.89269766 15.3765766,5.73998507 C15.3722988,5.58746118 15.3742695,5.37171984 15.3835461,5.09337436 C15.3930631,4.81488734 15.3973409,4.6264616 15.3973409,4.52767254 C15.3973409,4.18639267 15.4041181,3.81600447 15.4177207,3.41641358 C15.4315635,3.01682269 15.4427628,2.7002165 15.4521355,2.46697242 C15.4614602,2.23349246 15.4657861,1.98647263 15.4657861,1.72605449 C15.4657861,1.46563634 15.4496361,1.26140624 15.4177207,1.11317547 C15.3861897,0.965133419 15.3377878,0.821431666 15.2740049,0.682117392 C15.2098375,0.542944651 15.1159176,0.435286279 14.9926777,0.358859214 C14.8691975,0.282526503 14.7156764,0.221950978 14.5329795,0.176943929 C14.048047,0.0692383796 13.4305499,0.0109745369 12.6801999,0.00191651441 C10.9786341,-0.0160108218 9.88528887,0.0918362587 9.4004044,0.325316224 C9.20828672,0.423963751 9.03443391,0.558749013 8.87899018,0.729247416 C8.71426981,0.926872709 8.69129452,1.03471979 8.81020849,1.05245842 C9.35921229,1.13317861 9.74786969,1.32627489 9.97661326,1.63155855 L10.0590455,1.79332917 C10.1231649,1.91004557 10.1871881,2.11668171 10.2512594,2.41295453 C10.3152345,2.70922735 10.3565227,3.03696736 10.3746915,3.39598586 C10.4203537,4.05160741 10.4203537,4.61282739 10.3746915,5.07969297 C10.3288851,5.54674725 10.2856262,5.91034194 10.2443379,6.17076009 C10.2030497,6.43117823 10.1413336,6.64220185 10.0590455,6.80378376 C9.97661326,6.96541285 9.92177056,7.06420191 9.89427711,7.10005658 C9.86683173,7.13591125 9.84395256,7.15850913 9.82578382,7.16737845 C9.70686984,7.21210243 9.58319739,7.23488902 9.45519904,7.23488902 C9.32700843,7.23488902 9.1715647,7.17195464 8.98862752,7.04618022 C8.8057384,6.9204058 8.61592786,6.74764289 8.41919589,6.52760843 C8.22246392,6.30752679 8.0005937,5.99997862 7.75348912,5.60491674 C7.5065768,5.20985486 7.25038784,4.74294211 6.98506644,4.20417848 L6.76555144,3.8134569 C6.62832452,3.56209678 6.44086918,3.19609606 6.20299317,2.71578498 C5.96497296,2.23528519 5.7545904,1.77049541 5.57170128,1.32150999 C5.4985937,1.13294272 5.3887641,0.9893825 5.24240474,0.890593442 L5.17371918,0.850068226 C5.12805699,0.814213554 5.05475714,0.776141553 4.95420418,0.735569161 C4.85350702,0.695043945 4.7484359,0.66598279 4.63855824,0.648102631 L0.87844454,0.674899281 C0.494209168,0.674899281 0.233502056,0.760337191 0.096227072,0.930977125 L0.0412882392,1.01169732 C0.0138428555,1.05665719 0,1.12846089 0,1.22729712 C0,1.32608618 0.0274453837,1.44733159 0.0823842165,1.59089181 C0.63129189,2.85712787 1.22821697,4.07830971 1.87315945,5.25462603 C2.51810194,6.43094235 3.07854532,7.37849642 3.55415315,8.09643906 C4.02985712,8.81490065 4.51474158,9.49297855 5.00880655,10.1303425 C5.50287153,10.7679424 5.82990899,11.1765441 5.98991894,11.3560534 C6.15012115,11.5358929 6.27595655,11.6703479 6.36742515,11.7601261 L6.71056454,12.0833371 C6.93012761,12.2988897 7.25255079,12.5570434 7.67797827,12.857798 C8.10350188,13.1587414 8.57459155,13.4550142 9.09148762,13.7470883 C9.60847982,14.0386905 10.2099231,14.2766523 10.8961538,14.4606906 C11.5822884,14.6449176 12.25011,14.7188442 12.8997149,14.6831783 L14.4778965,14.6831783 C14.7979645,14.6560514 15.0404548,14.5572623 15.2052713,14.3867639 L15.2598737,14.3192533 C15.2965957,14.26566 15.3309625,14.1823923 15.3626857,14.0703464 C15.3947934,13.9581119 15.4107512,13.8344604 15.4107512,13.6999582 C15.4013784,13.3139072 15.4313232,12.9659753 15.4997684,12.6562098 C15.5681656,12.3465387 15.6461278,12.1130587 15.7333185,11.9558171 C15.8204612,11.7987171 15.9188032,11.6661491 16.0282483,11.5586795 C16.1379337,11.4509739 16.2160881,11.3857278 16.2619426,11.3632715 C16.3075087,11.3406736 16.3438942,11.325341 16.3713396,11.3161415 C16.5909027,11.2443378 16.8493026,11.313877 17.146924,11.5250893 C17.4443051,11.7361129 17.723229,11.9966726 17.9841284,12.3063437 C18.2448836,12.6162979 18.5581743,12.9640411 18.9240487,13.3500921 C19.2901634,13.7362847 19.6102794,14.0233579 19.8846371,14.2122083 L20.1589948,14.3738374 C20.3422204,14.4816844 20.5800964,14.5804735 20.8729112,14.6702517 C21.1651974,14.7599828 21.4212902,14.7824391 21.6411897,14.7375736 L25.1541508,14.6837916 C25.5016161,14.6837916 25.7719843,14.6273205 25.9637656,14.5152746 C26.1559313,14.4030401 26.2700868,14.2793886 26.3069049,14.1448864 C26.343627,14.0102427 26.3455977,13.8574829 26.3138744,13.6867014 C26.2813341,13.5163446 26.2492744,13.3972221 26.217359,13.3299003 Z" id="Shape"></path>
                    </g>
                </g>
            </g>
        </g>
    </g>
</svg>